<svg id="Capa_1" data-name="Capa 1" xmlns="http://www.w3.org/2000/svg" viewBox="0 0 149 72"><defs><style>.cls-1{fill:#fff;}.cls-2{fill:#050505;}</style></defs><title>Mesa de trabajo 1</title><path class="cls-1" d="M38.14,55.7c-1.44.36-2.83-1.51-4.42-1.51-9.91,0-18-6.74-18-17.4s7.94-18.6,17.85-18.6a19.4,19.4,0,0,1,4.55.53V5.49h5.57a36.62,36.62,0,0,0-10.12-1.4C15,4.09.32,18.48.32,36.8S15,69.51,33.59,69.51A37.82,37.82,0,0,0,44,68.11H38.14Z"/><rect class="cls-2" x="37.25" y="4" width="6.33" height="66"/><path class="cls-1" d="M116.48,55.12c-10.11,0-18.21-8.2-18.21-19.07s8.1-19,18.21-19c6.52,0,11.94,2.84,14.9,8.65h16.89c-3.59-14.3-16.58-23-31.8-23-19,0-33.94,14.68-33.94,33.37A33.08,33.08,0,0,0,89,55.89h27.47V69.42c16.28,0,29.07-9.21,32.15-25H132.22C129.39,51.64,123.55,55.12,116.48,55.12Z"/><path class="cls-1" d="M78.08,18.59H37.42l-3.78.36s.92-.87.2-.74c-1.72.06,0-14.11,0-14.11H78.08Z"/><rect class="cls-1" x="35.78" y="55.2" width="82.5" height="14.22"/><circle class="cls-2" cx="34.36" cy="36.34" r="18.86"/><rect class="cls-1" x="44.36" y="30.54" width="29.05" height="6.31"/><rect class="cls-2" x="35.91" y="4" width="4.46" height="66"/></svg>